<svg xmlns="http://www.w3.org/2000/svg" viewBox="0 0 400 584.2"><style><![CDATA[.B{fill:#e8cc43}.C{fill:#fbe343}.D{fill:#f7de61}]]></style><path fill="#aa1a25" d="M333.5 545.3s-9.7 20.6-7.3 30c2.4 7 5.2 6.2 5.2 6.2l34.6-26.1-14.1-24.6-18.4 14.5z"/><path fill="#c10e2c" d="M399.4 546.5s-8.7-7.1-13.5-3c-.1.1-.2.2-.3.2 0 0-7.8 4.2-23.3 23.4s-30.9 14.4-30.9 14.4-2.3-1-.9-4.8 10.3-9.4 17-11.8 14.1-5.9 13.5-10-20.4-55.3-20.4-55.3 33.7-8.6 52.2-52c4.8 23 7.9 55-25.3 74.1.1 0 26.6-2.5 31.9 24.8z"/><path fill="#e5c953" d="M200 369.3l44.2-24.4-1.3-8.4-40.8 1-2.1.7v31.1"/><path fill="#e0e0e0" d="M218.4 513.8s36.3-19.9 96.7-24l-22.4-131.1s-4.6-5.5-21.8-10.8c-.6.2-71 8.5-71 8.5l.1 142.2c0 .1 14.8 5.3 18.4 15.2z"/><path d="M203.6 142l1.8 6.6-.4 5.1-5 .2V142l3.4-.7z" class="B"/><path d="M200 143s1.9.1 3.6-1c1.5-1 2.8-2.6 2.8-5.6.3-4.7-1.4-14.6-6.4-27.3m0 42.2s4.2.5 12.7-9.5c0 0-6.7 37.1-.6 57.3s10.1 14.3 14.5 55.6h-27.4l.8-103.4z" class="C"/><path d="M200 279.8h19.8s6.7-10.3 10.7-29.1h-33.9l3.4 29.1z" class="D"/><path d="M200 285.6h20.2s-2.8-1.6-.3-5.7h-19.8l-.1 5.7z" class="B"/><path d="M197.9 295.7l2.1-10.1h20.4s10.6.3 13.9-8.9c1 7.9-3.2 16-8.6 19h-27.8z" class="D"/><path d="M200 300.2l-1.7-4.5h27.4l2.2 4.5z" class="B"/><path d="M200 310.9h33.1s10.8-6.7 6.9-22.7c-6.2 12-12 12-12 12h-28v10.7z" class="D"/><path d="M199.3 310.9H233v3.5h-33.7z" class="B"/><path fill="#e0c75a" d="M200 343.3v-29h33c10.8 8.9 13.1 29 13.1 29H200"/><g fill="#f4d553"><path d="M215.4 319.6s-.3 2.8 7.6 5.7c6.2 2.8 7.8 6.2 7.9 11.1 0 4.9-2.5 7.4-2.5 7.4h-12.9l-.1-24.2"/><path d="M215.4 319.6s.3 2.8-7.6 5.7c-6.2 2.8-7.8 6.2-7.9 11.1s2.5 7.4 2.5 7.4h12.9l.1-24.2"/></g><path fill="#f7d857" d="M253.4 319.6s-17.3-4.8-16.7 23.7c8.5.8 16.7.5 15.6-8.7-1.1-9.1-6.1-11.1 1.1-15z"/><g class="C"><path d="M231 319.6s-.3 2.8 7.6 5.7c6.2 2.8 7.8 6.2 7.9 11.1s-2.5 7.4-2.5 7.4h-14.1l1.1-24.2"/><path d="M231 319.6s.3 2.8-7.6 5.7c-6.2 2.8-7.8 6.2-7.9 11.1 0 4.9 2.5 7.4 2.5 7.4h13v-24.2"/></g><path fill="#f7f7f7" d="M200 498.7c26.7-22.3 92.8-27.3 92.8-27.3L271 347.9c-54.3-13.7-72.5 10-72.5 10l1.5 140.8z"/><path fill="#d0242c" d="M200 526.5c8.6 0 17.1-.6 25.7-1.3 18.2-1.5 36.3-4.2 54-8.8 7.9-2.1 15.6-4.7 23.1-8 8.7-3.8 17-8.4 26.2-10.9 6.6-1.8 13.1-2.4 18.7 2.2 5.8 4.7 8.8 12.5 10.4 19.6 0 0 5.7 23.5 3 35.3 0 .1-.1.1-.1 0-.3-1.2-3.8-8-15.9-7.5-27.2 1-29.9 26.6-145 26.6-13.2-.7-3.4-47.3-.1-47.2v42.1"/><g fill="#1d5e3e"><path d="M333.9 408s15.8 56-12.2 80.7c0-.1-18.3-32.2 12.2-80.7zm57.1 8s-13.3 66-54 66c0 0 1.3-36.2 54-66zm-51.9-47.8s26.2 35.8 10 77.7c-19.1-36.3-10-77.7-10-77.7zm52.7-10.2s-27.3 30.6-32.5 75.8c25.7-6 35.8-45.1 32.5-75.8zm-55.4-25s31.4 26.9 28.3 68.4c0 0-22.6-17.8-28.3-68.4zm45.4-28.8s18.2 48.4-12.7 79.7c-9.8-29.7 12.7-79.7 12.7-79.7m-55.5-5.8s35.8 18.9 38.8 55.8c-35.4-19.5-38.8-55.8-38.8-55.8zm39.9 37.9s-13.7-26.3-9.1-73.7c0 0 27.1 27.8 8.8 74.4"/><path d="M357.5 315.4c-14.8-39.8-42.5-46.1-42.5-46.1s5.4 27.9 42.5 46.1zm-39.6-74s30.5 10.8 36.1 51.3c-28.8-16.8-36-50.3-36-50.3"/></g><path d="M217 167l97.7 184.2-2 17.9-17.7-12.2zm15.9 10.9l71 73 3.1 16.2-17-6.6zm-11.5-23.5l67.3 39.8 9.3 15.1-19.4.3zm5-6.8l50 6.1 11.7 12.6-15.8 1.4zm47.1-28.1l-13.4-2.6-31.4 18.5 33.2-3.8zm-15.8-39l-2.6 16.2-32.8 24.5 22.6-35.4zm-18.8-34l2.6 15.5-29.8 44.6 15.7-52.5zM200 .5l8.1 7.4-8.1 90z" class="C"/><path fill="#aa1a25" d="M66.5 545.3s9.7 20.6 7.3 30c-2.4 7-5.2 6.2-5.2 6.2L34 555.4l14.1-24.6 18.4 14.5z"/><path fill="#c10e2c" d="M.6 546.5s8.7-7.1 13.5-3c.1.1.2.2.3.2 0 0 7.8 4.2 23.3 23.4s30.9 14.4 30.9 14.4 2.3-1 .9-4.8-10.3-9.4-17-11.8-14.1-5.9-13.5-10 20.4-55.3 20.4-55.3-33.7-8.6-52.2-52c-4.8 23-7.9 55 25.3 74.1-.1 0-26.6-2.5-31.9 24.8z"/><path fill="#e5c953" d="M200 369.3l-44.2-24.4 1.3-8.4 40.8 1 2.1.7v31.1"/><path fill="#e0e0e0" d="M181.6 513.8s-36.3-19.9-96.7-24l22.4-131.1s4.6-5.5 21.8-10.8c.6.2 71 8.5 71 8.5l-.1 142.3s-14.8 5.2-18.4 15.1z"/><path d="M196.4 142l-1.8 6.6.4 5.1 5 .2V142l-3.4-.7z" class="B"/><path d="M200 143s-1.9.1-3.6-1c-1.5-1-2.8-2.6-2.8-5.6-.3-4.7 1.4-14.6 6.4-27.3m0 42.2s-4.2.5-12.7-9.5c0 0 6.7 37.1.6 57.3s-10.1 14.3-14.5 55.6h27.4l-.8-103.4z" class="C"/><path d="M200 279.8h-19.8s-6.7-10.3-10.7-29.1h33.9l-3.4 29.1z" class="D"/><path d="M200 285.6h-20.2s2.8-1.6.3-5.7h19.8l.1 5.7z" class="B"/><path d="M202.1 295.7l-2.1-10.1h-20.4s-10.6.3-13.9-8.9c-1 7.9 3.2 16 8.6 19h27.8z" class="D"/><path d="M200 300.2l1.7-4.5h-27.4l-2.2 4.5z" class="B"/><path d="M200 310.9h-33.1s-10.8-6.7-6.9-22.7c6.2 12 12 12 12 12h28v10.7z" class="D"/><path d="M167 310.9h33.7v3.5H167z" class="B"/><path fill="#e0c75a" d="M200 343.3v-29h-33c-10.8 8.9-13.1 29-13.1 29H200"/><g fill="#f4d553"><path d="M184.6 319.6s.3 2.8-7.6 5.7c-6.2 2.8-7.8 6.2-7.9 11.1 0 4.9 2.5 7.4 2.5 7.4h12.9l.1-24.2"/><path d="M184.6 319.6s-.3 2.8 7.6 5.7c6.2 2.8 7.8 6.2 7.9 11.1s-2.5 7.4-2.5 7.4h-12.9l-.1-24.2"/></g><path fill="#f7d857" d="M146.6 319.6s17.3-4.8 16.7 23.7c-8.5.8-16.7.5-15.6-8.7 1.1-9.1 6.1-11.1-1.1-15z"/><g class="C"><path d="M169 319.6s.3 2.8-7.6 5.7c-6.2 2.8-7.8 6.2-7.9 11.1s2.5 7.4 2.5 7.4h14.1l-1.1-24.2"/><path d="M169 319.6s-.3 2.8 7.6 5.7c6.2 2.8 7.8 6.2 7.9 11.1 0 4.9-2.5 7.4-2.5 7.4h-13v-24.2"/></g><path fill="#f7f7f7" d="M200 498.7c-26.7-22.3-92.8-27.3-92.8-27.3L129 347.9c54.3-13.7 72.5 10 72.5 10L200 498.7z"/><path fill="#d0242c" d="M200 526.5c-8.6 0-17.1-.6-25.7-1.3-18.2-1.5-36.3-4.2-54-8.8-7.9-2.1-15.6-4.7-23.1-8-8.7-3.8-17-8.4-26.2-10.9-6.6-1.8-13.1-2.4-18.7 2.2-5.8 4.7-8.8 12.5-10.4 19.6 0 0-5.7 23.5-3 35.3 0 .1.1.1.1 0 .3-1.2 3.8-8 15.9-7.5 27.2 1 29.9 26.6 145 26.6 13.2-.7 3.4-47.3.1-47.2v42.1"/><g fill="#1d5e3e"><path d="M66.1 408s-15.8 56 12.2 80.7c0-.1 18.3-32.2-12.2-80.7zM9 416s13.3 66 54 66c0 0-1.3-36.2-54-66zm51.9-47.8s-26.2 35.8-10 77.7c19.1-36.3 10-77.7 10-77.7zM8.2 358s27.3 30.6 32.5 75.8C15 427.8 4.9 388.7 8.2 358zm55.4-25s-31.4 26.9-28.3 68.4c0 0 22.6-17.8 28.3-68.4zm-45.4-28.8S0 352.6 30.9 383.9c9.8-29.7-12.7-79.7-12.7-79.7m55.5-5.8s-35.8 18.9-38.8 55.8c35.4-19.5 38.8-55.8 38.8-55.8zm-39.9 37.9s13.7-26.3 9.1-73.7c0 0-27.1 27.8-8.8 74.4"/><path d="M42.5 315.4C57.3 275.6 85 269.3 85 269.3s-5.4 27.9-42.5 46.1zm39.6-74S51.6 252.2 46 292.7c28.8-16.8 36-50.3 36-50.3"/></g><path d="M183 167L85.3 351.2l2 17.9 17.7-12.2zm-15.9 10.9l-71 73-3.1 16.2 17-6.6zm11.5-23.5l-67.3 39.8-9.3 15.1 19.4.3zm-5-6.8l-50 6.1-11.7 12.6 15.8 1.4zm-47.1-28.1l13.4-2.6 31.4 18.5-33.2-3.8zm15.8-39l2.6 16.2 32.8 24.5-22.6-35.4zm18.8-34L158.5 62l29.8 44.6-15.7-52.5zM200 .5l-8.1 7.4 8.1 90z" class="C"/><path d="M179.8 369.3l-1.5 14.6c-.1 1.2-.6 2.2-1.5 2.8-.4.3-.9.5-1.4.6l-.8.1h-.8c-1-.1-1.8-.4-2.7-1a6.34 6.34 0 0 1-2-2.5c.6-.1 1.1-.4 1.4-.9.3-.4.5-1 .6-1.6l1.2-11.5c.1-1.3-.1-2.4-.7-3.3-.5-.8-1.3-1.2-2.2-1.3s-1.7.2-2.3.8c-.8.7-1.2 1.6-1.3 2.9l-.3 2.4c.4.8.9 1.3 1.7 1.4h.4l.5-.1-.4 3.6c-.3-.1-.6-.2-.8-.2-.7-.1-1.3.2-1.9.9l-.3 2.1h.5c.7.1 1.2.4 1.7 1.1s.6 1.5.5 2.3l-.1.6c-.2 1-.8 1.8-1.8 2.3-1 .6-2.3.8-3.8.6s-2.7-.9-3.7-2.1c-.4-.6-.7-1.2-.9-1.7-.1-.3-.1-.6-.2-.9v-.9l.6-5.4c0-.4.2-.8.5-1 .3-.3.7-.5 1.3-.6-.5-.2-.9-.5-1.2-1-.2-.4-.3-.7-.3-.8l.5-4.7c.3-2.4 1.6-4.3 3.9-5.6 2.2-1.1 4.7-1.5 7.5-1.2s5.2 1.2 7.1 2.7c2.4 1.9 3.3 4 3 6.5zm-5.6 49.8c-.3 2.7-1.4 4.7-3.3 6-.9.6-2.1 1.1-3.5 1.4s-3 .3-4.7.1c-3.1-.3-5.6-1.2-7.3-2.7-1-.8-1.7-1.9-2-3.1-.3-1.1-.4-2.2-.3-3.5l.1-.8c0-.2.1-.5.1-.7l.1-.5.1-.3.3-.7c.3-.7.7-1.2 1.3-1.6.3-.2.8-.4 1.5-.6l.9-.1h.9c.2 0 .4 0 .5.1.1 0 .3.1.5.1.2.1.4.1.5.2.1 0 .3.1.5.2.6.3 1 .7 1.4 1.2.2.3.4.7.5 1.2l.1.6v.6c-.1.5-.2.9-.4 1.2-.3.5-.7.9-1 1.1-.5.3-1.2.4-2.1.3.5.9 1.1 1.6 1.7 2.1.7.5 1.3.8 2 .9 1 .1 2-.3 2.8-1.2s1.4-2.2 1.5-3.9l.8-8c.1-.8-.2-1.5-1-2.1-.7-.5-1.5-.8-2.5-.9-.9-.1-1.6 0-2.2.3-.7.3-1.1.8-1.1 1.5l.1.5c0 .2.1.5.3.8.2.2.6.4 1.1.4-.3.5-.9.9-1.7 1.2-.3.1-.7.2-1.1.3h-1.1c-1-.1-1.9-.5-2.7-1.1-.8-.7-1.3-1.6-1.4-2.8.3-2.6 1.5-4.5 3.7-5.7 2-1.1 4.3-1.5 7.1-1.2 2.9.3 5.4 1.3 7.4 3 2.2 1.8 3.1 4.1 2.9 6.7l-1.3 9.5zm-4.2 44.8c-.3 1.2-.8 2.1-1.7 2.6-.7.5-1.6.6-2.7.5a6.22 6.22 0 0 1-2.6-.9c-.8-.5-1.3-1.1-1.5-1.8.5.1.8-.2 1.1-.6l.2-.5.1-.8 1.5-14.2c.1-.9.1-1.6-.1-2.1-.1-.5-.3-.8-.6-.8-.2 0-.5.2-.7.7-.3.5-.4 1.2-.5 2l-1.2 11.8c-.2 1.9-.9 3.3-2.2 4.3-1 .8-2.4 1.3-4.2 1.5-.7.1-1.4.1-2.2.1s-1.6 0-2.3-.1c-2.1-.2-3.9-1.2-5.4-3-1.7-2-2.3-4.5-2-7.4.2-1.6.6-3 1.4-4.2.2-.3.4-.6.8-1l.7-.8.6-.6c.8-.8 1.3-1.5 1.4-2.1-1.1-.1-1.9-.5-2.4-1.2-.4-.6-.6-1.4-.5-2.4.1-1.3.6-2.4 1.4-3 .9-.8 2-1.1 3.5-.9 1.6.2 2.9.7 3.7 1.5.9.9 1.3 2 1.1 3.5l-.3 1.7c-.1.4-.2.7-.3.9l-.5 1-1.3 2.3-1.2 2.5-.4 1.3c-.1.4-.2.9-.2 1.3-.1.6-.1 1.1 0 1.6 0 .5.1.9.3 1.4.2.7.5 1.3.9 1.8.3.4.7.6 1.1.6s.8-.1 1.1-.5c.2-.2.3-.4.4-.7l.1-.4v-.4l1.4-13.7c.2-1.6 1.1-2.8 2.9-3.5.8-.3 1.7-.6 2.6-.7l.6-.1h1.7l.8.1c2.1.2 4 .9 5.5 1.9 1.6 1.2 2.3 2.6 2.2 4.3l-2.1 17.2zm72.3-87.2l-10.4 1.1 1.1 10.7-6.5.7-2.8-26.9 18-1.9.5 5-11.5 1.2.6 6.2 10.4-1.1.6 5zm10.8 49.9l-6.4.7-11.3-15.7 1.8 16.7-6.5.7-2.8-26.9 6.5-.7 11.3 15.7-1.8-16.7 6.5-.7 2.7 26.9zm-5.1 33.5c0-.4-.1-.8-.3-1.1s-.4-.6-.8-.9-.9-.5-1.5-.7l-2.5-.7-3.6-1c-1.1-.4-2.2-.9-3.1-1.4-.9-.6-1.7-1.3-2.3-2.2s-1-1.9-1.1-3.1 0-2.2.4-3.2 1.1-1.8 1.9-2.6c.9-.7 1.9-1.4 3.1-1.9s2.6-.8 4.1-1 2.8-.1 4.1.2 2.4.7 3.4 1.3 1.7 1.4 2.4 2.4c.6 1 1 2.1 1.1 3.4l-6.5.7c-.1-.5-.2-1-.4-1.4s-.5-.7-.8-1-.8-.5-1.2-.6c-.5-.1-1-.2-1.7-.1-.6.1-1.1.2-1.6.4s-.8.4-1.1.7-.5.6-.6.9-.2.7-.1 1.1c0 .4.2.8.5 1.1s.6.6 1.1.8 1 .5 1.6.6c.6.2 1.3.4 2.1.5 1.5.3 2.8.7 4 1.1a10.6 10.6 0 0 1 3 1.6c.8.6 1.5 1.4 2 2.2.5.9.8 1.8.9 3s0 2.3-.4 3.3-1 1.9-1.8 2.6-1.8 1.3-3 1.8-2.5.8-4 .9c-.9.1-1.8.1-2.8.1l-2.7-.4c-.9-.2-1.7-.6-2.5-1s-1.5-.9-2-1.5c-.6-.6-1.1-1.3-1.5-2.2-.4-.8-.6-1.8-.8-2.8l6.5-.7c.1.8.3 1.4.5 2 .3.5.6.9 1.1 1.2.4.3 1 .5 1.6.6s1.3.1 2 0c.6-.1 1.1-.2 1.6-.4.4-.2.8-.4 1-.7.3-.3.4-.6.5-.9.2-.3.2-.6.2-1z" fill="#282828"/><g fill="#fff"><path d="M77.1 535.9c-.6 1.6-1.6 2.5-3.1 2.9-1.2.3-2.6.2-4.2-.4-1.1-.4-2.1-1-2.9-1.8-.8-.7-1.3-1.5-1.4-2.2-.5.5-1.2.7-2 .8-.9.1-1.7-.1-2.5-.4-.1 0-.1 0-.2-.1-.4-.2-.7-.3-.8-.4s-.3-.2-.3-.2c-.1 0-.2-.1-.3-.2-.2-.1-.3-.3-.5-.4-.4-.4-.8-.9-1-1.5-.1-.2-.1-.6-.1-1.1l.3-1.2c.2-.4.4-.8.7-1.1s.6-.5.9-.7.8-.3 1.2-.3c.5 0 .9 0 1.4.2l.6.3c.1.1.3.2.5.5l3-7.2c.1-.8-.2-1.4-.8-2-.3-.3-.9-.6-1.8-1l5.6-1.4c1 .4 1.8.9 2.2 1.3.8.8 1.1 1.8 1 3.1l-3.9 9.8c-.2.4-.1.8.1 1.2a2.36 2.36 0 0 0 .9.8c.4.2.9.2 1.3.1.5-.1.8-.4 1-.9l4-10.2c.1-.2.1-.5 0-.9-.2-.4-.5-.8-.9-.9.5-.4 1.2-.6 1.9-.6.8 0 1.5.1 2.1.4.8.3 1.4.7 1.9 1.3.5.5.8 1.2.8 1.9-1.7 4.2-3.2 8.4-4.7 12.5z"/><path d="M92.8 527.9c1.1.6 1.9 1.4 2.4 2.3.4.9.5 1.7.3 2.5-.3 1.1-1.2 1.9-2.5 2.4-1.5.5-3.2.4-5.2-.3l-3.4-1.2c-1.5-.5-2.6-1.3-3.5-2.2-1-1.1-1.3-2.2-.9-3.4a4.77 4.77 0 0 1 .8-1.6 2.73 2.73 0 0 1 1.2-.9c.3-.1.7-.2 1.2-.3.4 0 .8.1 1.2.2.3.1.7.3.9.5.3.2.5.4.8.6.3.3.5.7.6 1.2 0 .4 0 .8-.2 1.2-.1.2-.2.4-.4.7l2.9 1c.8.3 1.6.3 2.3 0s1.2-.8 1.4-1.6c0-.4.1-.8.1-1.1zm-2.9 9.1c1.1.6 1.9 1.4 2.5 2.3.4.9.5 1.7.3 2.5-.3 1.1-1.2 1.9-2.5 2.3-1.5.5-3.3.4-5.4-.3l-3.5-1.2c-1.5-.5-2.7-1.3-3.6-2.3-1.1-1.1-1.4-2.3-1-3.4a4.77 4.77 0 0 1 .8-1.6 2.73 2.73 0 0 1 1.2-.9c.3-.1.7-.2 1.2-.3.4 0 .8.1 1.2.2s.7.3 1 .5.6.4.8.7c.3.3.5.7.6 1.2 0 .4 0 .8-.1 1.2-.1.2-.2.4-.4.7l2.9 1c.9.3 1.6.3 2.4 0 .7-.3 1.2-.8 1.5-1.6 0-.3.1-.7.1-1zm26.2 13.1c-.3.9-.9 1.4-1.6 1.7-.6.3-1.4.3-2.2.1-.7-.2-1.4-.5-2-1s-1-1-1.1-1.5c.4.1.7 0 .9-.3.1-.1.1-.2.2-.4s.1-.4.2-.6l2.6-10.2c.2-.6.2-1.2 0-1.6s-.4-.7-.8-.8-.7 0-1 .3c-.4.3-.7.8-.8 1.4l-2.3 8.5c-.4 1.5-1.2 2.5-2.3 3.1-.9.4-2.1.6-3.6.4-.9-.1-2.1-.4-3.7-.9-1.8-.5-3.3-1.7-4.5-3.5-1.2-1.9-1.5-3.7-.9-5.5.4-1.2.9-2.2 1.5-2.9.3-.4.8-.8 1.5-1.4.6-.5 1.1-1 1.4-1.5-.6-.2-1-.6-1.3-1.1-.2-.6-.3-1.2-.1-1.8.3-.8.8-1.4 1.5-1.7s1.6-.3 2.6 0c1.1.3 1.9.8 2.4 1.3.6.7.8 1.5.5 2.5-.3 1.2-.9 2.3-1.6 3.4l-1.8 2.5-.8 1.3-.5 1.1c-.2.8-.2 1.5.1 2.1.3.7.9 1.2 1.7 1.4.6.2 1.2.2 1.7 0s.8-.5 1-.9l2.2-7.7c.2-.7.3-1.2.2-1.6-.1-.7-.5-1.2-1.3-1.4l2.8-2.6c.1 0 .3 0 .4.1.6.2 1.1.5 1.6.9.6.5.9 1.1 1 1.8.4-.6 1-1 1.9-1.1.9-.2 1.8-.1 2.8.1 1.4.4 2.6 1 3.4 1.9a3.56 3.56 0 0 1 1 3.5c-.8 4.1-1.9 8.3-2.9 12.6z"/><path d="M126.7 551.4c-.1.6-.3 1.1-.7 1.5-.3.4-.7.8-1.2 1-.4.2-.8.3-1.2.4s-.9 0-1.4-.1c-.8-.2-1.6-.6-2.3-1.1-.7-.6-1.2-1.2-1.5-2 .8.1 1.4-.4 1.6-1.4l1.9-8.3h-.7c-.9-.2-1.5-.8-2-1.7s-.6-1.9-.4-2.8c.3-1.1.9-1.8 2.1-2.3 1-.4 2.2-.5 3.5-.2 1.5.3 2.6 1 3.5 2.1 1 1.3 1.3 2.8.9 4.6l-2.1 10.3z"/><path d="M144.1 551.9c-.3 2-1.3 3.4-2.9 4.3-.8.4-1.8.7-3 .8s-2.5 0-3.8-.2c-2.6-.5-4.5-1.3-5.9-2.6a5.79 5.79 0 0 1-1.5-2.5c-.2-.8-.2-1.7 0-2.6 0-.2.1-.4.1-.6s.1-.3.2-.5c0-.1.1-.2.1-.4 0-.1.1-.1.1-.2.1-.2.2-.3.3-.5a2.59 2.59 0 0 1 1.1-1c.3-.1.7-.2 1.2-.3h.7c.2 0 .5.1.7.1s.3.1.4.1.2.1.4.1c.1.1.3.1.4.2.1 0 .2.1.4.2.4.2.8.6 1.1 1 .2.3.3.6.3.9v1c-.1.4-.2.7-.4.9-.3.4-.6.6-.9.8-.4.2-1 .2-1.7.1.3.7.8 1.3 1.3 1.7s1 .7 1.6.8c.8.2 1.6-.1 2.4-.7.7-.6 1.2-1.5 1.4-2.8l1-5.9c.1-.6-.1-1.1-.7-1.6-.5-.4-1.1-.7-1.9-.8-.7-.1-1.3-.1-1.8.1-.6.2-.9.5-1 1 0 .1-.1.2-.1.3 0 .2 0 .4.2.6s.5.3.9.4c-.3.4-.8.6-1.4.8-.3.1-.6.1-.9.1h-.4c-.2 0-.3-.1-.5-.1-.8-.2-1.5-.5-2.1-1-.6-.6-.9-1.3-.9-2.2.4-1.9 1.5-3.2 3.3-3.9 1.6-.7 3.5-.8 5.6-.4 2.3.4 4.1 1.3 5.6 2.6 1.6 1.5 2.3 3.2 2 5.1-.2 2.1-.6 4.4-1 6.8z"/><path d="M166 558.4c-.2.9-.6 1.5-1.3 1.9a3.79 3.79 0 0 1-2.2.4c-.8-.1-1.5-.3-2.1-.7-.7-.4-1.1-.9-1.3-1.4.4 0 .7-.1.9-.4 0-.1.1-.3.1-.4 0-.2 0-.4.1-.6l1.2-10.5c.1-.7.1-1.2 0-1.5-.1-.4-.2-.6-.5-.6-.2 0-.4.2-.6.5-.2.4-.3.8-.4 1.4l-1 8.7c-.2 1.4-.8 2.4-1.8 3.1-.9.6-2 .9-3.5 1h-1.8c-.7 0-1.3-.1-1.9-.2-1.8-.2-3.2-1.1-4.4-2.4-1.3-1.6-1.8-3.4-1.4-5.6.2-1.2.6-2.2 1.2-3 .1-.2.4-.5.7-.7l.6-.6c.2-.1.3-.3.5-.4.7-.6 1-1.1 1.2-1.5-.8-.1-1.5-.5-1.9-1-.3-.5-.4-1.1-.3-1.8.2-1 .6-1.7 1.2-2.2.7-.5 1.6-.7 2.7-.5 1.3.2 2.2.6 2.8 1.2.7.7 1 1.5.8 2.6-.1.5-.2.9-.2 1.2-.1.3-.2.5-.2.7-.1.2-.2.4-.5.7-.4.5-.7 1.1-1.1 1.6l-1 1.8c-.1.3-.2.7-.4 1-.1.3-.2.6-.2.9-.1.4-.1.8-.1 1.2 0 .3.1.7.2 1.1.2.6.4 1 .7 1.3s.6.5.9.5.6-.1.9-.3c.1-.1.2-.3.3-.5 0-.1.1-.2.1-.3v-.3l1.4-10.1c.2-1.2.9-2 2.3-2.6.6-.2 1.3-.4 2-.5h1.7c.2 0 .4.1.7.1 1.7.2 3.1.7 4.3 1.5 1.3.9 1.8 1.9 1.7 3.2-.3 4.3-.7 8.7-1.1 13zm13.5-13.9c1.2.3 2.1.8 2.9 1.6.6.7.9 1.5.9 2.4-.1 1.2-.7 2.1-1.8 2.9-1.3.9-3 1.2-5.1 1.1l-3.6-.3c-1.5-.1-2.8-.5-3.9-1.3-1.3-.8-1.8-1.8-1.7-3 .1-.7.2-1.3.4-1.8a2.73 2.73 0 0 1 .9-1.2c.3-.2.6-.4 1.1-.6.4-.1.8-.1 1.2-.1s.7.1 1 .2.6.2.9.4a1.59 1.59 0 0 1 .8 1 3.73 3.73 0 0 1 .2 1.2c0 .2-.1.4-.2.8l3 .2c.9.1 1.6-.1 2.2-.6.6-.4.9-1.1 1-1.9-.1-.3-.1-.7-.2-1zm-.5 9.5c1.2.3 2.2.8 2.9 1.6.6.7.9 1.5.9 2.4-.1 1.2-.7 2.1-1.8 2.9-1.3.9-3.1 1.2-5.2 1.1l-3.7-.3c-1.6-.1-2.9-.5-4-1.3-1.3-.8-1.9-1.8-1.8-3 .1-.7.2-1.3.4-1.8a2.73 2.73 0 0 1 .9-1.2c.3-.2.7-.4 1.1-.6.4-.1.8-.1 1.2-.1s.7.1 1.1.2c.3.1.6.3.9.4.4.2.7.6.9 1a3.73 3.73 0 0 1 .2 1.2c0 .2-.1.4-.2.8l3.1.2a3.1 3.1 0 0 0 2.3-.6c.6-.4 1-1.1 1-1.9-.1-.3-.1-.7-.2-1z"/><path d="M200.2 556.9c0 1.9-.9 3.3-2.7 4.4-1.7 1-3.7 1.4-6.1 1.4-2.4-.1-4.4-.6-6-1.7-1.8-1.2-2.6-2.7-2.5-4.6l.2-3.5c0-.2.2-.5.5-.8.3-.2.5-.4.9-.5-.5-.2-.8-.4-1-.6-.1-.1-.1-.2-.2-.4-.1-.1-.1-.3-.1-.5l.2-4c0-.9.5-1.7 1.3-2.4.9-.8 1.9-1.2 3.1-1.1 1.2 0 2.1.3 2.9.8.7.5 1 1.1 1.2 1.9v.5a2.52 2.52 0 0 1-.6 1.7c-.4.5-.9.7-1.5.7h-.3v1.5c.4.6.8.9 1.4.9.1 0 .4 0 .7-.1l-.1 2.6c-.1 0-.3 0-.4-.1h-.3c-.6 0-1.1.3-1.5.8 0 .6 0 1.2-.1 1.8 0 .9.2 1.7.8 2.3.5.5 1.1.8 1.8.8s1.3-.2 1.8-.7c.6-.6.9-1.4.9-2.4l.1-8.6c0-.5-.1-.9-.3-1.2s-.5-.6-1.1-.8c.4-.7 1-1.2 1.7-1.6s1.4-.6 2.2-.6c.9 0 1.6.3 2.3.8.6.5 1 1.3 1 2.2-.2 3.8-.2 7.4-.2 11.1zm11.3 1.9c0 .6-.1 1.2-.3 1.7s-.5.9-.9 1.3c-.3.3-.7.5-1.1.7s-.9.2-1.4.3c-.8 0-1.7-.2-2.5-.6s-1.4-.9-1.9-1.6c.8-.1 1.2-.7 1.2-1.8l-.1-8.5c-.2 0-.3.1-.4.1h-.3c-.9 0-1.7-.4-2.4-1.1-.7-.8-1-1.7-1-2.6 0-1.1.5-2 1.5-2.7a5.86 5.86 0 0 1 3.3-1c1.5 0 2.8.4 3.9 1.2 1.2 1 1.9 2.4 2 4.3.2 3.3.3 6.8.4 10.3zm10.9-.3c.1.9-.3 1.7-1 2.5-.4.4-.8.6-1.3.8s-1.1.3-1.8.3c-1.5.1-2.8-.2-3.8-.9-.5-.3-.8-.8-1.1-1.3s-.5-1.1-.5-1.7l-.3-9.3c0-.5.1-1 .5-1.5.4-.6.8-.9 1.3-.9 0-.7-.3-1.3-.8-1.7s-1.1-.7-1.8-.6c-.2 0-.3 0-.5.1-.1 0-.1 0-.2.1-.1 0-.2.1-.3.1-.1-2-.5-3.8-1.4-5.3-.7-1.3-1.8-2.3-3-3.1-1.1-.7-2.3-1.1-3.6-1.3.4-.2.8-.3 1.3-.5.4-.1.8-.3 1.3-.4.4-.1.9-.2 1.3-.2.4-.1.8-.1 1.2-.1 2.5-.1 4.6.7 6.3 2.4a9.99 9.99 0 0 1 2 2.9c.5 1.1.7 2.3.8 3.7 1 0 1.8.3 2.6.9.8.7 1.2 1.7 1.3 3-.5 0-1.1.3-1.6.7-.5.5-.8 1-.7 1.5l.4 7.5h.3c.8 0 1.5.1 2.1.5.4.2.6.5.8.8 0 .2.1.6.2 1z"/><path d="M240.5 556.4c.2 1.6-.1 2.8-.8 3.6-.5.5-1.4.8-2.6.9-.2 0-.5 0-.7.1-.2 0-.5 0-.7.1-.9.1-1.9-.3-2.9-1.2l-2.4-2.4c-.9-.9-1.5-1.3-2-1.3-.1 0-.3 0-.4.1-.1 0-.3.1-.4.3-.1.1-.1.3-.1.5s.1.3.2.5c.2-.2.4-.3.6-.3s.4.1.6.2c.1 0 .2.2.4.4s.3.5.3.9v.7c0 .1-.1.2-.1.3-.1.4-.3.7-.5.9s-.5.4-1 .6-1 .3-1.5.3h-1c-.4-.1-.7-.2-.9-.3-.6-.4-1.1-.7-1.4-1a4.31 4.31 0 0 1-.7-1c-.1-.1-.2-.4-.3-.8-.1-.1-.1-.3-.2-.5 0-.2-.1-.4-.1-.6s-.1-.4-.1-.6v-.8c0-.1 0-.3.1-.6.1-.5.3-.9.7-1.4.5-.7 1-1.3 1.7-1.7s1.4-.7 2.2-.7c1.6-.1 2.8 0 3.8.2.7.2 1.2.5 1.8 1 .3.3.6.7 1 1s.7.4.9.4c.1 0 .3-.1.4-.3 0-.1 0-.3.1-.4v-.4l-.4-4.6c-.1-.8-.5-1.4-1.3-1.8-.5-.2-1.3-.2-2.2-.2h-.8c-1.1.1-1.8.3-2.3.6-.2.1-.3.3-.3.4-.1.2-.1.4-.1.6s.1.4.2.6c.1.1.4.2.7.3-.5.3-1 .5-1.5.7s-1 .3-1.4.3c-.9.1-1.7-.1-2.4-.5-.6-.3-.9-.8-1.1-1.2 0-.2-.1-.4-.1-.6s-.1-.4-.1-.6c0-.6 0-1.1.1-1.6s.4-.9.7-1.3c.7-.7 1.8-1.3 3.3-1.8 1.2-.3 2.7-.6 4.5-.7l3.8-.1c1.5.1 2.7.5 3.6 1.2 1.1.8 1.8 2.1 1.9 3.8l1.2 9.8zm11.1-1.1c.2 1.1-.2 2-1.2 2.9-.9.8-2 1.2-3.4 1.4-1.6.2-3-.1-4.2-.8-1.4-.9-2.2-2.2-2.4-4.1l-1.2-10.3c0-1.3.3-2.4 1-3.1.6-.7 1.4-1.1 2.4-1.2.8-.1 1.6 0 2.4.3s1.3.8 1.7 1.5c-.8.2-1.1.9-1 1.9l1.1 8.3c.2-.1.3-.1.4-.1s.2-.1.3-.1c.9-.1 1.7.2 2.5.8 1 .8 1.5 1.6 1.6 2.6zm11.1-1.8c.2 1.1-.2 2-1.1 2.9-.8.8-1.9 1.3-3.3 1.5-1.6.3-3 0-4.3-.7-1.4-.8-2.3-2.2-2.5-4l-1.5-10.3c-.1-1.3.2-2.4.9-3.1.6-.7 1.3-1.1 2.3-1.3.8-.1 1.6 0 2.4.3s1.4.8 1.8 1.5c-.8.3-1.1.9-.9 1.9l1.4 8.3c.2-.1.3-.1.4-.1s.2-.1.3-.1c.9-.1 1.7.1 2.6.7.8.7 1.3 1.5 1.5 2.5zm24.3-4.1c.1.9-.1 1.7-.6 2.3a3.99 3.99 0 0 1-1.9 1.1c-.7.2-1.5.2-2.3 0s-1.3-.5-1.6-.9c.4-.1.6-.3.7-.7v-.4c0-.2-.1-.4-.1-.6l-2.4-10.3c-.2-.6-.4-1.1-.7-1.4s-.7-.4-1-.3c-.4.1-.6.3-.8.7s-.2 1-.1 1.6l1.9 8.6c.3 1.5.1 2.8-.6 3.8-.6.8-1.6 1.5-3 2-.8.3-2 .6-3.6.9-1.8.4-3.7 0-5.5-1.1-1.9-1.1-3-2.6-3.4-4.5-.2-1.3-.2-2.4-.1-3.3.1-.5.3-1.1.7-1.9.3-.7.5-1.4.5-1.9-.6.1-1.2 0-1.6-.4-.5-.4-.8-.9-.9-1.6-.2-.9 0-1.6.5-2.2s1.2-1 2.3-1.2 2-.2 2.7.1c.9.3 1.4 1 1.6 2 .2 1.2.3 2.5.2 3.8l-.4 3c-.1.6-.1 1.1-.1 1.5s0 .8.1 1.2c.2.8.5 1.4 1.1 1.9s1.3.6 2.2.5c.6-.1 1.1-.4 1.5-.8s.5-.8.4-1.3l-1.6-7.8c-.1-.7-.3-1.2-.5-1.5-.4-.6-1-.8-1.8-.7l1.2-3.6c.1 0 .3-.1.4-.1.6-.1 1.2-.1 1.9.1.8.2 1.3.6 1.7 1.1.1-.7.5-1.3 1.2-1.9s1.6-1 2.6-1.2c1.4-.3 2.7-.3 3.9.1 1.3.5 2.2 1.3 2.5 2.6.7 4.2 1.8 8.4 2.8 12.7z"/><path d="M297.4 545.8c.8 2.8 1 5.3.6 7.3-.3 1.8-1.1 3.4-2.3 4.6-1 1.1-2.3 1.8-3.8 2.1-1.3.3-2.5.4-3.6.1-1.2-.3-2-.7-2.6-1.5l-2.7-4.3c1.1.7 2.2 1.1 3.2 1.4s1.8.3 2.6.1c1.2-.3 1.9-1.1 2.3-2.5.2-.7.3-1.5.2-2.5 0-.5-.1-1-.2-1.5l-.4-1.8-2.2-8.5c-.1.1-.3.1-.4.2-.1 0-.2.1-.3.1-.9.2-1.7 0-2.6-.5-.9-.6-1.4-1.3-1.7-2.3-.3-1.1 0-2 .8-3 .7-.8 1.7-1.4 3-1.8 1.5-.4 2.8-.3 4.1.3 1.5.7 2.4 1.9 2.9 3.6l3.1 10.4zm14.2-14.5c.4 1.1.5 2.2.2 3.1-.2 1-.8 1.9-1.7 2.9-.1.1-.2.3-.4.4l-.6.6c-.2.2-.5.4-.7.6-.2.1-.3.3-.5.4l-.3.3-2.4 1.8c-.7.6-1 1-.9 1.4.1.2.2.2.4.1.3-.1.9-.4 1.6-1 .2-.2.4-.4.7-.5.3-.3.6-.6 1-.9l1.5-1.1c.5-.3.9-.6 1.4-.7.6-.2 1.2-.3 1.8-.2.7 0 1.2.2 1.5.6.7.7 1.3 1.9 1.9 3.5l2.1 6.1c.3.3.6.4 1 .3s.8-.5 1.1-1l-1.2 3.1c-.3.4-.7.7-1.4.9-.3.1-.5.2-.8.2-.1 0-.2.1-.4.1s-.3.1-.5.1c-.6.1-1.1.1-1.5 0-.9-.3-1.6-.9-1.9-1.8l-1.7-5.2c-.2-.5-.4-.9-.6-1.1s-.5-.2-.9-.1l-.8.4c-.1.1-.2.1-.2.2-.1.1-.2.2-.3.2-.2.2-.5.4-.7.6l-1.6 1.2-.8.5c-.2.1-.5.3-.7.4s-.5.2-.7.3-.5.2-.7.3c-.6.2-1.2.2-1.9.2-.5-.1-1-.2-1.6-.5-.8-.4-1.4-1.1-1.7-2.1s-.1-2 .6-3.2c.7-1.1 1.7-2.2 3.2-3.2 1.3-1 2.3-1.9 3-2.7.7-.9.9-1.7.9-2.4 0-.2-.1-.3-.1-.5-.1-.2-.1-.3-.2-.5-.2-.8-.7-1.3-1.2-1.6-.5-.2-1.1-.3-1.6-.1s-.9.5-1.3.9-.5.9-.5 1.4c.7-.1 1.3-.1 1.7.1a1.27 1.27 0 0 1 .7.9c.1.3.1.6.1 1s-.1.7-.2 1c-.2.4-.6.9-1.2 1.4-.6.4-1.1.7-1.7.8-.4.1-.7.2-1.1.2s-.7 0-1-.1c-.8-.2-1.5-.5-2-1-.6-.6-1-1.3-1.3-2.4-.5-1.7 0-3.3 1.4-4.9 1.3-1.4 3.1-2.4 5.2-3.1 2.3-.7 4.4-.8 6.2-.3 2.2.4 3.6 1.7 4.3 3.7zm13.5 5.1c.2.6.3 1.1.2 1.7 0 .5-.2 1-.5 1.5-.2.4-.5.7-.8 1s-.8.5-1.2.7c-.8.3-1.7.4-2.6.3s-1.7-.4-2.3-.9c.8-.4 1-1.1.6-2.1l-2.8-8a.76.76 0 0 1-.4.2c-.1 0-.2.1-.3.1-.8.3-1.7.2-2.6-.3s-1.5-1.2-1.8-2.2-.2-2 .6-3c.7-.9 1.6-1.6 2.9-2 1.4-.5 2.8-.5 4.1-.1 1.5.5 2.6 1.7 3.2 3.4 1.3 3.2 2.5 6.5 3.7 9.7zm17.6-5.6c.3.7.2 1.4-.4 2.2-.6.7-1.3 1.3-2.2 1.7l-.6.3c-.1 0-.2.1-.3.1s-.2 0-.4.1c-.2 0-.3.1-.5.1h-.6c-.8 0-1.4-.2-2-.6.6-.4.9-.8.9-1.4 0-.3-.1-.8-.3-1.3l-4.2-10.1c-.2-.4-.5-.6-1.1-.6s-1.2.1-1.9.3c-.3.1-.6.3-.8.4-.3.2-.5.3-.6.5-.3.4-.4.7-.3 1.2l3.2 8.1c.6-.2 1.1-.3 1.5-.2.4 0 .7.2 1 .5.2.2.4.4.6.7.1.1.2.3.3.4s.1.3.2.4c.2.5.2.9.2 1.3 0 .5-.2.9-.6 1.5-.5.7-1.3 1.3-2.4 1.7-.7.3-1.4.4-2 .4s-1.2-.1-1.8-.4c-.4-.2-.9-.5-1.3-1-.2-.2-.3-.5-.5-.7-.1-.1-.1-.3-.2-.4-.1-.2-.1-.3-.2-.5l-3.8-10.1c-.5-1.3-.1-2.6 1.3-4 .6-.6 1.3-1.2 2.2-1.7.8-.5 1.8-1 2.8-1.4 2.1-.9 4-1.3 5.8-1.3 1.9 0 3.2.6 3.7 1.7l5.3 12.1zm-195.5 2.8a3.85 3.85 0 0 1-2 2.8c-1.3.7-3.1.9-5.2.5-.5-.1-.8-.2-1.1-.4s-.4-.4-.3-.7a.55.55 0 0 1 .3-.5c.2-.2.4-.3.7-.4.6-.1 1-.4 1.4-.7.4-.4.7-.9.8-1.6s-.1-1.2-.7-1.7-1.3-.8-2.1-1c-.9-.2-1.7-.1-2.4.2s-1.1.7-1.2 1.3 0 1.1.2 1.7c.3.5.7.9 1.2 1.3.2.1.4.3.5.6.1.2.2.4.1.6 0 .2-.2.4-.5.6-.3.1-.8.1-1.3 0-2.3-.4-3.9-1.2-4.8-2.3-.8-1-1-2.2-.7-3.6s1.3-2.4 2.9-2.9c.8-.3 1.8-.4 2.9-.4s2.3.1 3.6.4c2.5.5 4.4 1.3 5.8 2.5 1.4 1.1 2.1 2.4 1.9 3.7zm124.4-2.4c-.6.7-1.3 1.2-2.1 1.3-.9.2-1.8 0-2.6-.5l-1-4.8c.2-.3.5-.6.9-.9.4-.2.8-.4 1.2-.5.3-.1.5-.1.7-.1s.4 0 .7.1c.4.1.9.2 1.2.5l1 4.9z"/></g><g class="C"><path d="M200 319.6s.3 2.8-7.6 5.7c-6.2 2.8-7.8 6.2-7.9 11.1 0 4.9 2.5 7.4 2.5 7.4h13v-24.2"/><path d="M200 319.6s-.3 2.8 7.6 5.7c6.2 2.8 7.8 6.2 7.9 11.1 0 4.9-2.5 7.4-2.5 7.4h-13v-24.2"/></g></svg>