<?xml version="1.0" encoding="utf-8"?>
<!-- Generator: Adobe Illustrator 23.0.0, SVG Export Plug-In . SVG Version: 6.00 Build 0)  -->
<svg version="1.1" xmlns="http://www.w3.org/2000/svg" xmlns:xlink="http://www.w3.org/1999/xlink" x="0px" y="0px"
	 viewBox="0 0 24 24" style="enable-background:new 0 0 24 24;" xml:space="preserve">
<g id="Layer_8">
	<path d="M21.9,16.5c0-0.2,0-0.4,0-0.6c0-0.2,0-0.4,0-0.6l1.3-1c0.1-0.1,0.1-0.3,0.1-0.4l-1.2-2.1c-0.1-0.1-0.2-0.2-0.3-0.2
		c0,0-0.1,0-0.1,0l-1.5,0.6c-0.3-0.2-0.7-0.4-1-0.6L19,10.1c0-0.1-0.1-0.3-0.3-0.3h-2.4c-0.2,0-0.3,0.1-0.3,0.3l-0.2,1.6
		c-0.4,0.2-0.7,0.4-1,0.6l-1.5-0.6c0,0-0.1,0-0.1,0c-0.1,0-0.2,0.1-0.3,0.2L11.6,14c-0.1,0.1,0,0.3,0.1,0.4l1.3,1c0,0.2,0,0.4,0,0.6
		c0,0.2,0,0.4,0,0.6l-1.3,1c-0.1,0.1-0.1,0.3-0.1,0.4l1.2,2.1c0.1,0.1,0.2,0.2,0.3,0.2c0,0,0.1,0,0.1,0l1.5-0.6
		c0.3,0.2,0.7,0.4,1,0.6l0.2,1.6c0,0.1,0.1,0.3,0.3,0.3h2.4c0.2,0,0.3-0.1,0.3-0.3l0.2-1.6c0.4-0.2,0.7-0.4,1-0.6l1.5,0.6
		c0,0,0.1,0,0.1,0c0.1,0,0.2-0.1,0.3-0.2l1.2-2.1c0.1-0.1,0-0.3-0.1-0.4L21.9,16.5z M20.7,15.5c0,0.2,0,0.3,0,0.4s0,0.3,0,0.4
		L20.7,17l0.5,0.4l0.7,0.5l-0.4,0.7l-0.8-0.3L20,18.1l-0.5,0.4c-0.3,0.2-0.5,0.3-0.8,0.4l-0.6,0.3L18,19.9l-0.1,0.8H17l-0.1-0.8
		l-0.1-0.7L16.2,19c-0.3-0.1-0.5-0.2-0.7-0.4l-0.5-0.4l-0.6,0.3l-0.8,0.3L13.1,18l0.7-0.5l0.5-0.4l-0.1-0.7c0-0.2,0-0.3,0-0.4
		s0-0.3,0-0.4l0.1-0.7l-0.5-0.4l-0.7-0.5l0.4-0.7l0.8,0.3l0.6,0.3l0.5-0.4c0.3-0.2,0.5-0.3,0.8-0.4l0.6-0.3l0.1-0.7l0.1-0.8h0.8
		l0.1,0.8l0.1,0.7l0.6,0.3c0.3,0.1,0.5,0.2,0.7,0.4l0.5,0.4l0.6-0.3l0.8-0.3l0.4,0.7l-0.6,0.5l-0.5,0.4
		C20.7,14.8,20.7,15.5,20.7,15.5z M17.5,13.5c-1.3,0-2.4,1.1-2.4,2.4s1.1,2.4,2.4,2.4s2.4-1.1,2.4-2.4S18.8,13.5,17.5,13.5z
		 M17.5,17.1c-0.7,0-1.2-0.5-1.2-1.2s0.5-1.2,1.2-1.2s1.2,0.5,1.2,1.2S18.1,17.1,17.5,17.1z"/>
</g>
<g id="Layer_5">
	<path d="M1,15v3h8.3C9.1,17.4,9,16.7,9,16H3v-1c0.2-0.7,3.3-2,6-2c0.2,0,0.4,0,0.6,0c0.3-0.7,0.6-1.3,1-1.9C10,11,9.5,11,9,11
		C6.3,11,1,12.3,1,15z"/>
</g>
<g id="Layer_6">
	<path d="M9,10c2.2,0,4-1.8,4-4s-1.8-4-4-4S5,3.8,5,6S6.8,10,9,10z M9,4c1.1,0,2,0.9,2,2s-0.9,2-2,2S7,7.1,7,6S7.9,4,9,4z"/>
</g>
</svg>
